<svg xmlns="http://www.w3.org/2000/svg" width="30" height="24" viewBox="0 0 30 24">
  <path id="path" d="M192.919,2028.229l-4.619-7.259-9.067-14.251a1.351,1.351,0,0,0-2.251,0l-13.686,21.51a1.188,1.188,0,0,0-.019,1.255,1.328,1.328,0,0,0,1.144.632h27.372a1.328,1.328,0,0,0,1.144-.632A1.188,1.188,0,0,0,192.919,2028.229Zm-13.465-2.58a1.336,1.336,0,0,1-2.669,0v-.032a1.336,1.336,0,0,1,2.669,0Zm-1.342-2.885h0a1.1,1.1,0,0,1-1.125-1l-.481-7.341a1.036,1.036,0,0,1,.3-.8,1.159,1.159,0,0,1,.82-.334h.928a1.158,1.158,0,0,1,.82.334,1.036,1.036,0,0,1,.3.8l-.481,7.341a1.1,1.1,0,0,1-1.106,1Z" transform="translate(-163.108 -2006.116)" fill="#d52b1e"/>
</svg>
