<?xml version="1.0" encoding="UTF-8" standalone="no"?>
<svg
   xmlns:dc="http://purl.org/dc/elements/1.1/"
   xmlns:cc="http://creativecommons.org/ns#"
   xmlns:rdf="http://www.w3.org/1999/02/22-rdf-syntax-ns#"
   xmlns:svg="http://www.w3.org/2000/svg"
   xmlns="http://www.w3.org/2000/svg"
   xmlns:sodipodi="http://sodipodi.sourceforge.net/DTD/sodipodi-0.dtd"
   xmlns:inkscape="http://www.inkscape.org/namespaces/inkscape"
   width="16"
   height="16"
   viewBox="0 0 16 16"
   version="1.1"
   id="svg3"
   sodipodi:docname="round-danger-exclamation.svg"
   inkscape:version="0.92.5 (2060ec1f9f, 2020-04-08)">
  <metadata
     id="metadata9">
    <rdf:RDF>
      <cc:Work
         rdf:about="">
        <dc:format>image/svg+xml</dc:format>
        <dc:type
           rdf:resource="http://purl.org/dc/dcmitype/StillImage" />
      </cc:Work>
    </rdf:RDF>
  </metadata>
  <defs
     id="defs7" />
  <sodipodi:namedview
     pagecolor="#ffffff"
     bordercolor="#666666"
     borderopacity="1"
     objecttolerance="10"
     gridtolerance="10"
     guidetolerance="10"
     inkscape:pageopacity="0"
     inkscape:pageshadow="2"
     inkscape:window-width="1266"
     inkscape:window-height="1043"
     id="namedview5"
     showgrid="false"
     inkscape:zoom="16"
     inkscape:cx="9.1996669"
     inkscape:cy="9.1056649"
     inkscape:window-x="1294"
     inkscape:window-y="0"
     inkscape:window-maximized="0"
     inkscape:current-layer="svg3" />
  <circle
     style="opacity:1;vector-effect:none;fill:#d52b1e;fill-opacity:1;stroke:none;stroke-width:0.99999988;stroke-linecap:butt;stroke-linejoin:miter;stroke-miterlimit:4;stroke-dasharray:5.99999949, 5.99999949;stroke-dashoffset:0;stroke-opacity:1"
     id="path842"
     cx="8"
     cy="8"
     r="8" />
  <path
     style="opacity:1;vector-effect:none;fill:#ffffff;fill-opacity:1;stroke:none;stroke-width:0.99999988;stroke-linecap:butt;stroke-linejoin:miter;stroke-miterlimit:4;stroke-dasharray:5.99999966, 5.99999966;stroke-dashoffset:0;stroke-opacity:1"
     d="m 7.6529265,3.8670668 c -0.229153,-0.00124 -0.361056,0.08845 -0.524174,0.2494004 -0.156577,0.1575796 -0.237859,0.3748634 -0.223148,0.596519 0,0 0.118195,2.1225483 0.270398,2.7636832 0.152203,0.6411349 0.40693,1.3208712 0.840086,1.3092429 0.420875,-0.00514 0.689445,-0.6853394 0.807999,-1.3092429 0.118554,-0.6239035 0.270398,-2.7636832 0.270398,-2.7636832 0.01433,-0.2218771 -0.0675,-0.4391935 -0.224606,-0.596519 C 8.7068075,3.9554468 8.5748745,3.8657444 8.3457055,3.8670668 Z m 0.345661,6.3487572 c -0.523613,0.01247 -0.94843,0.427736 -0.972808,0.95093 v 0.02333 c 0.06914,1.257152 1.923148,1.257152 1.992286,0 v -0.02333 c -0.02523,-0.541221 -0.477813,-0.963373 -1.019478,-0.95093 z"
     id="rect849-3"
     inkscape:connector-curvature="0"
     sodipodi:nodetypes="ccczczcccccccccc" />
</svg>
