<?xml version="1.0" encoding="UTF-8" standalone="no"?>
<!-- Created with Inkscape (http://www.inkscape.org/) -->

<svg
   xmlns:dc="http://purl.org/dc/elements/1.1/"
   xmlns:cc="http://creativecommons.org/ns#"
   xmlns:rdf="http://www.w3.org/1999/02/22-rdf-syntax-ns#"
   xmlns:svg="http://www.w3.org/2000/svg"
   xmlns="http://www.w3.org/2000/svg"
   xmlns:sodipodi="http://sodipodi.sourceforge.net/DTD/sodipodi-0.dtd"
   xmlns:inkscape="http://www.inkscape.org/namespaces/inkscape"
   width="16.933332mm"
   height="16.933332mm"
   viewBox="0 0 16.933332 16.933332"
   version="1.1"
   id="svg4549"
   inkscape:version="0.92.5 (2060ec1f9f, 2020-04-08)"
   sodipodi:docname="success.svg">
  <defs
     id="defs4543" />
  <sodipodi:namedview
     id="base"
     pagecolor="#ffffff"
     bordercolor="#666666"
     borderopacity="1.0"
     inkscape:pageopacity="0.0"
     inkscape:pageshadow="2"
     inkscape:zoom="1.4"
     inkscape:cx="125.44384"
     inkscape:cy="17.49156"
     inkscape:document-units="mm"
     inkscape:current-layer="layer1"
     showgrid="false"
     inkscape:window-width="2560"
     inkscape:window-height="1043"
     inkscape:window-x="0"
     inkscape:window-y="0"
     inkscape:window-maximized="1" />
  <metadata
     id="metadata4546">
    <rdf:RDF>
      <cc:Work
         rdf:about="">
        <dc:format>image/svg+xml</dc:format>
        <dc:type
           rdf:resource="http://purl.org/dc/dcmitype/StillImage" />
        <dc:title></dc:title>
      </cc:Work>
    </rdf:RDF>
  </metadata>
  <g
     inkscape:label="Layer 1"
     inkscape:groupmode="layer"
     id="layer1"
     transform="translate(-111.72978,-79.890474)">
    <g
       transform="matrix(0.26458333,0,0,0.26458333,-1318.3537,-240.84273)"
       id="g16">
      <path
         class="c"
         d="m 194.03,575.69 a 32,32 0 1 0 32.01,32 32,32 0 0 0 -32.01,-32 z m 0,62.088 a 30.088,30.088 0 1 1 30.088,-30.089 30.089,30.089 0 0 1 -30.088,30.089 z"
         transform="translate(5243,636.53)"
         id="path12"
         inkscape:connector-curvature="0"
         style="fill:#18a765" />
      <path
         class="c"
         d="m 206.833,594.67 -17.181,20.74 a 0.969,0.969 0 0 1 -1.374,0.06 l -7.167,-7.33 a 2.193,2.193 0 0 0 -3.142,-0.01 2.292,2.292 0 0 0 -0.01,3.2 l 10.584,10.83 a 0.969,0.969 0 0 0 1.375,-0.06 l 20.313,-24.51 a 2.293,2.293 0 0 0 -0.265,-3.19 2.195,2.195 0 0 0 -3.132,0.27 z"
         transform="translate(5243,636.218)"
         id="path14"
         inkscape:connector-curvature="0"
         style="fill:#18a765" />
    </g>
  </g>
</svg>
