<svg id="Face_ID" data-name="Face ID" xmlns="http://www.w3.org/2000/svg" viewBox="0 0 65 65">
  <defs>
    <style>
      .cls-1 {
        fill: #1778d3;
        fill-rule: evenodd;
      }
    </style>
  </defs>
  <path id="Path_740" data-name="Path 740" class="cls-1" d="M65,54.463v-7.3a1.65,1.65,0,0,0-3.3,0v7.3A7.245,7.245,0,0,1,54.463,61.7h-7.3a1.65,1.65,0,0,0,0,3.3h7.3A10.549,10.549,0,0,0,65,54.463M19.487,63.35a1.65,1.65,0,0,0-1.65-1.65h-7.3A7.245,7.245,0,0,1,3.3,54.463v-7.3a1.65,1.65,0,0,0-3.3,0v7.3A10.549,10.549,0,0,0,10.537,65h7.3a1.65,1.65,0,0,0,1.65-1.65M3.3,17.837v-7.3A7.245,7.245,0,0,1,10.537,3.3h7.3a1.65,1.65,0,0,0,0-3.3h-7.3A10.549,10.549,0,0,0,0,10.537v7.3a1.65,1.65,0,0,0,3.3,0m61.7,0v-7.3A10.549,10.549,0,0,0,54.463,0h-7.3a1.65,1.65,0,0,0,0,3.3h7.3A7.245,7.245,0,0,1,61.7,10.537v7.3a1.65,1.65,0,0,0,3.3,0m-21.11,30.2a1.714,1.714,0,0,0-2.326-2.518,13.362,13.362,0,0,1-18.127,0,1.714,1.714,0,0,0-2.326,2.518,16.79,16.79,0,0,0,22.779,0M35.928,36.689V24.5a1.714,1.714,0,0,0-3.428,0V36.689a.953.953,0,0,1-.952.952h-1.4a1.714,1.714,0,0,0,0,3.428h1.4a4.385,4.385,0,0,0,4.38-4.38m11.807-7.4V24.407a1.619,1.619,0,0,0-3.237,0v4.888a1.619,1.619,0,0,0,3.237,0M19.265,30.913a1.619,1.619,0,0,1-1.619-1.619V24.407a1.619,1.619,0,0,1,3.237,0v4.888a1.619,1.619,0,0,1-1.619,1.619"/>
</svg>
