<svg xmlns="http://www.w3.org/2000/svg" viewBox="0 0 65 65.003">
  <defs>
    <style>
      .cls-1 {
        fill: #1778d3;
        fill-rule: evenodd;
      }
    </style>
  </defs>
  <path id="Path_752" data-name="Path 752" class="cls-1" d="M64.024,33.548a1.216,1.216,0,0,1-1.457-1.185A30.1,30.1,0,0,0,37.561,2.877a1.22,1.22,0,0,1,.413-2.4A32.53,32.53,0,0,1,65,32.34,1.221,1.221,0,0,1,64.024,33.548ZM32.134,2.437A30.342,30.342,0,0,0,5.468,19.361a1.217,1.217,0,1,1-2.2-1.049A32.822,32.822,0,0,1,32.111,0a1.22,1.22,0,0,1,.023,2.44ZM3.637,24.08a30.656,30.656,0,0,0,.516,18.634A1.221,1.221,0,0,1,3.4,44.267a1.169,1.169,0,0,1-.159.043,1.216,1.216,0,0,1-1.388-.8A33.1,33.1,0,0,1,1.3,23.4a1.216,1.216,0,1,1,2.335.682Zm2.18,14.192a36.177,36.177,0,0,1-.589-5.043A27.665,27.665,0,0,1,16.954,10.115a1.219,1.219,0,0,1,1.386,2.005A25.2,25.2,0,0,0,7.659,33.171a33.782,33.782,0,0,0,.557,4.7c.219,1.322.445,2.69.543,4.084a26.422,26.422,0,0,1-.781,8.688,1.216,1.216,0,1,1-2.35-.63,23.983,23.983,0,0,0,.7-7.884C6.242,40.85,6.035,39.6,5.816,38.272Zm5.417,9.911a27.76,27.76,0,0,0,.275-6.815c-.089-1.144-.282-2.265-.486-3.454a35.523,35.523,0,0,1-.548-4.213A22.085,22.085,0,0,1,38.115,11.231a1.22,1.22,0,0,1-.622,2.359A19.649,19.649,0,0,0,12.9,33.579a32.92,32.92,0,0,0,.516,3.921c.2,1.191.416,2.422.514,3.677a30.233,30.233,0,0,1-.3,7.417,31.98,31.98,0,0,1-1.952,6.689,1.217,1.217,0,1,1-2.253-.919A29.565,29.565,0,0,0,11.233,48.184Zm4.389,3.652a1.216,1.216,0,1,1,2.338.674,52.18,52.18,0,0,1-2.245,6.181,1.217,1.217,0,1,1-2.236-.961A49.721,49.721,0,0,0,15.622,51.836Zm5.125.713a35.43,35.43,0,0,0,1.082-13.061c-.086-.846-.242-1.7-.408-2.6a19.612,19.612,0,0,1-.479-5.258,11.735,11.735,0,0,1,2.724-6.516,1.218,1.218,0,0,1,1.853,1.582,9.252,9.252,0,0,0-2.154,5.146,17.54,17.54,0,0,0,.447,4.6c.168.91.341,1.852.437,2.8A37.857,37.857,0,0,1,23.09,53.2a77.886,77.886,0,0,1-2.866,8.1,1.219,1.219,0,0,1-.889.741,1.2,1.2,0,0,1-.693-.064,1.222,1.222,0,0,1-.676-1.587A75.713,75.713,0,0,0,20.746,52.548Zm2.822,7.88A61.116,61.116,0,0,0,26.88,48.457c.673-4.729.23-9.27-.641-14.635a6.427,6.427,0,0,1,3.376-6.764A6.115,6.115,0,0,1,36.867,28c1.919,1.8,2.245,4.591,2.507,6.836.041.354.081.7.127,1.034a56.089,56.089,0,0,1,.535,7.731,1.216,1.216,0,1,1-2.432-.01,53.564,53.564,0,0,0-.513-7.391c-.047-.348-.09-.71-.132-1.08-.238-2.041-.485-4.15-1.751-5.337a3.756,3.756,0,0,0-4.446-.573,4.029,4.029,0,0,0-2.123,4.219c.908,5.585,1.366,10.337.648,15.372a63.261,63.261,0,0,1-3.434,12.459q-.338.935-.681,1.869a1.215,1.215,0,0,1-.9.777,1.2,1.2,0,0,1-.657-.051,1.221,1.221,0,0,1-.724-1.566Q23.23,61.361,23.568,60.429Zm4.65,2.812c.385-1.154.77-2.309,1.144-3.467a1.216,1.216,0,1,1,2.314.751c-.376,1.166-.763,2.328-1.151,3.49l-.032.1a1.216,1.216,0,1,1-2.306-.774ZM30.9,54.553A48.149,48.149,0,0,0,31.3,32.846a1.216,1.216,0,1,1,2.384-.482,50.578,50.578,0,0,1-.425,22.8,1.217,1.217,0,0,1-.938.889,1.2,1.2,0,0,1-.545-.015A1.221,1.221,0,0,1,30.9,54.553Zm6.318-5.213a1.216,1.216,0,1,1,2.411.315,87.932,87.932,0,0,1-3.506,14.483,1.217,1.217,0,1,1-2.326-.716A85.915,85.915,0,0,0,37.221,49.34Zm5.256.259a54.915,54.915,0,0,0-.2-14.071l-.008-.06c-.533-3.87-1.035-7.524-3.941-9.916a9.2,9.2,0,0,0-9.015-1.524,1.219,1.219,0,0,1-.843-2.289,11.632,11.632,0,0,1,11.4,1.926c3.642,3,4.234,7.3,4.807,11.469l.008.06a57.369,57.369,0,0,1,.205,14.7,90.147,90.147,0,0,1-2.85,13.16A1.217,1.217,0,1,1,39.7,62.4,87.807,87.807,0,0,0,42.477,49.6ZM43.96,23.9a14.642,14.642,0,0,0-20.779-2.271,14.554,14.554,0,0,0-5.035,9.89,22.274,22.274,0,0,0,.482,5.458c.1.578.2,1.175.287,1.771A32.84,32.84,0,0,1,19.08,46.8a1.22,1.22,0,0,1-.969,1.073,1.19,1.19,0,0,1-.364.018,1.219,1.219,0,0,1-1.087-1.337,30.366,30.366,0,0,0-.15-7.451c-.083-.569-.182-1.152-.278-1.717a24.489,24.489,0,0,1-.51-6.058,17.016,17.016,0,0,1,5.886-11.56A17.066,17.066,0,0,1,45.9,22.425,1.217,1.217,0,1,1,43.96,23.9ZM47.5,52.922a54.511,54.511,0,0,0,.573-10.951,92.444,92.444,0,0,0-.9-9.839,18.839,18.839,0,0,0-.845-3.485,1.217,1.217,0,0,1,2.251-.925,20.5,20.5,0,0,1,.992,4.006A94.594,94.594,0,0,1,50.5,41.85a57.012,57.012,0,0,1-.6,11.459A52.547,52.547,0,0,1,48.324,60.2c-.036.121-.063.212-.08.271a1.215,1.215,0,0,1-2.39.03,1.824,1.824,0,0,1,.14-1A50.187,50.187,0,0,0,47.5,52.922ZM42.27,15.563a1.219,1.219,0,0,1,1.213-2.115,22.309,22.309,0,0,1,10,12.415,58.41,58.41,0,0,1,2.285,16.127A68.871,68.871,0,0,1,54.64,55.977a1.216,1.216,0,1,1-2.394-.433,66.325,66.325,0,0,0,1.091-13.486A56.091,56.091,0,0,0,51.167,26.6,19.854,19.854,0,0,0,42.27,15.563Zm2.061-4.833A24.987,24.987,0,0,0,22.919,9.608a1.22,1.22,0,0,1-.935-2.253A27.317,27.317,0,0,1,56.193,19.079c3.12,5.593,3.966,12.191,4.514,17.937a1.218,1.218,0,0,1-.969,1.311,1.059,1.059,0,0,1-.126.019,1.218,1.218,0,0,1-1.327-1.1c-.524-5.5-1.326-11.8-4.215-16.977A24.872,24.872,0,0,0,44.33,10.729ZM58.607,42.765a1.216,1.216,0,1,1,2.432-.048c.034,1.739,0,3.473-.095,5.154a1.216,1.216,0,1,1-2.428-.14C58.608,46.112,58.639,44.442,58.607,42.765Z" transform="translate(0.001 0.003)"/>
</svg>
