<svg xmlns="http://www.w3.org/2000/svg" width="44" height="44" viewBox="0 0 11.642 11.642"><path d="M2.646 0h6.35a2.64 2.64 0 012.646 2.646v6.35a2.64 2.64 0 01-2.646 2.646h-6.35A2.64 2.64 0 010 8.996v-6.35A2.64 2.64 0 012.646 0z" fill="#427bb6"/><path class="j" d="M5.893 9.52a.183.183 0 01-.082-.02L5.807 9.5c-1.67-.776-2.483-1.737-2.483-2.937v-3.68a.273.273 0 01.08-.196.189.189 0 01.177-.053 2.574 2.574 0 00.979.01 2.102 2.102 0 001.177-.524.226.226 0 01.056-.05.183.183 0 01.182-.01.216.216 0 01.077.064 2.114 2.114 0 001.175.52 2.57 2.57 0 00.98-.01.19.19 0 01.176.054.272.272 0 01.08.195v3.68c0 1.201-.813 2.163-2.486 2.939h-.002a.188.188 0 01-.05.016.192.192 0 01-.032.003z" style="isolation:isolate" fill="#c7d8e9"/></svg>